# xmcd CD database file
#
# Track frame offsets:
#	150
#	33066
#	57256
#	88016
#	109063
#	134620
#	156936
#	173756
#	183839
#	197811
#	208271
#	222623
#	235185
#	245817
#	259127
#	271734
#	286120
#	297947
#	309080
#
# Disc length: 4231 seconds
#
# Revision: 0
# Processed by: cddbd v1.5.2PL0 Copyright (c) Steve Scherf et al.
# Submitted via: CDex 1.51
#
DISCID=1b108513
DTITLE=Manne, Shelly Manne - Jazz Gun(1-7) - Daktari(8-13) - Jazz Gun - Daktari
DYEAR=1967
DGENRE=Jazz
TTITLE0=a bluish bag
TTITLE1=silver tears
TTITLE2=sweet
TTITLE3=theme for sam
TTITLE4=a quiet happening
TTITLE5=night owl
TTITLE6=peter gunn
TTITLE7=daktari
TTITLE8=out on a limb
TTITLE9=clarence
TTITLE10=africa
TTITLE11=stay with me
TTITLE12=elephantime
TTITLE13=wameru
TTITLE14=toto
TTITLE15=galloping giraffes
TTITLE16=judy judy
TTITLE17=ivan
TTITLE18=rhino trot
EXTD=YEAR: 1967
EXTT0=
EXTT1=
EXTT2=
EXTT3=
EXTT4=
EXTT5=
EXTT6=
EXTT7=
EXTT8=
EXTT9=
EXTT10=
EXTT11=
EXTT12=
EXTT13=
EXTT14=
EXTT15=
EXTT16=
EXTT17=
EXTT18=
PLAYORDER=
